<svg xmlns="http://www.w3.org/2000/svg" viewBox="0 0 16 16" width="96" height="96" role="img" aria-label="Commando">
  <title>Commando</title>
  <rect x="0.5" y="0.5" width="15" height="15" rx="1.6" fill="#5eead4"/>
  <path fill="#0f172a" d="M0 3a2 2 0 0 1 2-2h12a2 2 0 0 1 2 2v10a2 2 0 0 1-2 2H2a2 2 0 0 1-2-2zm9.5 5.5h-3a.5.5 0 0 0 0 1h3a.5.5 0 0 0 0-1m-6.354-.354a.5.5 0 1 0 .708.708l2-2a.5.5 0 0 0 0-.708l-2-2a.5.5 0 1 0-.708.708L4.793 6.5z"/>
  <rect x="0.5" y="0.5" width="15" height="15" rx="1.6" fill="none" stroke="#334155" stroke-width="0.6"/>
</svg>
